# xmcd
# 
# Track frame offsets:
#     150
#     19458
#     31249
#     42876
#     63258
#     81367
#     97437
#     120048
#     135369
#     151457
#     170621
# 
# Disc length: 2611
# 
# Revision: 0
# Processed by: cddbd v1.5.2PL0 Copyright (c) Steve Scherf et al.
# Submitted via: fre:ac v1.0.17
# 
DISCID=8a0a310b
DTITLE=Shakedown Tim and the Rhythm Revue - Hard To Catch
DYEAR=2016
DGENRE=Blues
TTITLE0=How Long
TTITLE1=Red Hair
TTITLE2=Hard To Catch
TTITLE3=Take Off Your Clothes
TTITLE4=Shakedown
TTITLE5=Feelin' Good (radio edit)
TTITLE6=This Ship
TTITLE7=Wild Calypso Night
TTITLE8=Wiggle Wobble
TTITLE9=Takin' Off
TTITLE10=Feelin' Good (long version)
EXTD=
EXTT0=
EXTT1=
EXTT2=
EXTT3=
EXTT4=
EXTT5=
EXTT6=
EXTT7=
EXTT8=
EXTT9=
EXTT10=
PLAYORDER=
